
<svg viewBox="0 0 72 65" fill="none" xmlns="http://www.w3.org/2000/svg">
<path d="M21.2811 6.73187H21.2882L21.2953 6.73177C26.2673 6.66101 30.9582 9.37777 33.6756 13.9812L33.69 14.0055L33.7057 14.029C34.6008 15.3665 36.3926 15.7058 37.6792 14.6946L37.6794 14.6945C37.918 14.5069 38.1253 14.2818 38.2945 14.0288L38.3074 14.0094L38.3194 13.9895C42.8237 6.52557 51.9892 4.48612 58.8084 9.3175C63.0079 12.2928 65.5652 17.3924 65.5568 22.891V22.8926C65.5568 26.6907 64.0579 30.5955 61.6398 34.4104C59.2254 38.2194 55.9372 41.8712 52.4648 45.1432C45.9614 51.2712 38.9054 55.9799 36.0069 57.8039C33.1038 55.9341 26.0432 51.1815 19.5358 45.039C16.0626 41.7605 12.7738 38.111 10.3591 34.3172C7.94021 30.5168 6.44304 26.642 6.44304 22.8928C6.44304 13.8904 13.1602 6.73187 21.2811 6.73187ZM50.7218 1.00143C45.1238 0.969877 39.8052 3.45435 36.0046 7.79318C32.2201 3.42331 26.8843 0.931619 21.2745 1.00143C10.0026 1.00516 1 10.8818 1 22.8928C1 28.1016 3.0944 33.2065 6.15921 37.8987C9.22784 42.5968 13.3149 46.9511 17.4124 50.6794C25.4686 58.0095 33.6757 63.0179 34.5981 63.5591C35.4481 64.1469 36.5513 64.1469 37.4013 63.5595C38.3169 63.0246 46.5264 58.0842 54.5858 50.7859C58.6843 47.0745 62.7722 42.7281 65.8415 38.0156C68.9076 33.3081 71 28.1689 71 22.8928C71 10.8805 61.9954 1.00312 50.7218 1.00143Z" fill="black" stroke="black" stroke-width="2"/>
</svg>
