<svg width="512" height="512" viewBox="0 0 512 512" fill="none" xmlns="http://www.w3.org/2000/svg">
<path d="M256 120C222.909 120 196 146.909 196 180C196 213.249 222.861 240 256 240C289.733 240 316 212.745 316 180C316 146.909 289.091 120 256 120Z" fill="white"/>
<path d="M256 0C156.742 0 76 80.742 76 180C76 213.53 85.287 246.255 102.851 274.644L245.747 504.903C251.672 514.472 265.642 514.326 271.382 504.698L410.63 272.212C427.211 244.424 436 212.534 436 180C436 80.742 355.258 0 256 0ZM256 270.2C205.655 270.2 165.8 229.221 165.8 180C165.8 130.371 206.371 89.8 256 89.8C305.629 89.8 346.2 130.371 346.2 180C346.2 228.787 306.881 270.2 256 270.2Z" fill="white"/>
</svg>
